<svg width="32" height="24" viewBox="0 0 32 24" fill="none" xmlns="http://www.w3.org/2000/svg">
<path d="M8.09033 0.557143C7.74667 0.203572 7.2678 0 6.76076 0C6.25372 0 5.77485 0.203572 5.43119 0.557143L0.473483 5.7C-0.196934 6.39643 -0.151864 7.48393 0.586158 8.12143C1.32418 8.75893 2.4622 8.71607 3.13262 8.01429L4.95796 6.12321V22.2857C4.95796 23.2339 5.76358 24 6.76076 24C7.75793 24 8.56356 23.2339 8.56356 22.2857V6.12321L10.3889 8.01964C11.0593 8.71607 12.203 8.76429 12.9354 8.12679C13.6677 7.48929 13.7185 6.40179 13.048 5.70536L8.09033 0.5625V0.557143ZM17.5776 24H19.3804C20.3776 24 21.1832 23.2339 21.1832 22.2857C21.1832 21.3375 20.3776 20.5714 19.3804 20.5714H17.5776C16.5804 20.5714 15.7748 21.3375 15.7748 22.2857C15.7748 23.2339 16.5804 24 17.5776 24ZM17.5776 17.1429H22.986C23.9832 17.1429 24.7888 16.3768 24.7888 15.4286C24.7888 14.4804 23.9832 13.7143 22.986 13.7143H17.5776C16.5804 13.7143 15.7748 14.4804 15.7748 15.4286C15.7748 16.3768 16.5804 17.1429 17.5776 17.1429ZM17.5776 10.2857H26.5916C27.5888 10.2857 28.3944 9.51964 28.3944 8.57143C28.3944 7.62321 27.5888 6.85714 26.5916 6.85714H17.5776C16.5804 6.85714 15.7748 7.62321 15.7748 8.57143C15.7748 9.51964 16.5804 10.2857 17.5776 10.2857ZM17.5776 3.42857H30.1972C31.1944 3.42857 32 2.6625 32 1.71429C32 0.766071 31.1944 0 30.1972 0H17.5776C16.5804 0 15.7748 0.766071 15.7748 1.71429C15.7748 2.6625 16.5804 3.42857 17.5776 3.42857Z" fill="#BEBEBE"/>
</svg>
