<svg width="32" height="24" viewBox="0 0 32 24" fill="none" xmlns="http://www.w3.org/2000/svg">
<path d="M17.811 23.5102H19.5846C20.5656 23.5102 21.3582 22.7598 21.3582 21.8309C21.3582 20.902 20.5656 20.1516 19.5846 20.1516H17.811C16.8299 20.1516 16.0374 20.902 16.0374 21.8309C16.0374 22.7598 16.8299 23.5102 17.811 23.5102ZM17.811 16.793H23.1318C24.1129 16.793 24.9055 16.0426 24.9055 15.1137C24.9055 14.1848 24.1129 13.4344 23.1318 13.4344H17.811C16.8299 13.4344 16.0374 14.1848 16.0374 15.1137C16.0374 16.0426 16.8299 16.793 17.811 16.793ZM17.811 10.0758H26.6791C27.6601 10.0758 28.4527 9.32536 28.4527 8.3965C28.4527 7.46764 27.6601 6.7172 26.6791 6.7172H17.811C16.8299 6.7172 16.0374 7.46764 16.0374 8.3965C16.0374 9.32536 16.8299 10.0758 17.811 10.0758ZM17.811 3.3586H30.2263C31.2074 3.3586 31.9999 2.60816 31.9999 1.6793C31.9999 0.750437 31.2074 0 30.2263 0H17.811C16.8299 0 16.0374 0.750437 16.0374 1.6793C16.0374 2.60816 16.8299 3.3586 17.811 3.3586Z" fill="#BEBEBE"/>
<path d="M6.64946 24C6.15063 24 5.67951 23.8006 5.34141 23.4542V23.4489L0.463952 18.411C-0.195613 17.7288 -0.14573 16.6635 0.574803 16.039C1.29534 15.4145 2.42048 15.4618 3.08004 16.144L4.87584 18.0017L4.87584 2.16907C4.87584 1.2402 5.66842 0.489765 6.64946 0.489765C7.63049 0.489765 8.42308 1.2402 8.42308 2.16907L8.42308 18.0017L10.2189 16.1492C10.8784 15.4618 11.998 15.4198 12.7241 16.0443C13.4502 16.6688 13.4945 17.7341 12.835 18.4163L7.9575 23.4542C7.61941 23.8006 7.14829 24 6.64946 24Z" fill="#BEBEBE"/>
</svg>
