<svg width="33" height="32" viewBox="0 0 33 32" fill="none" xmlns="http://www.w3.org/2000/svg">
<path fill-rule="evenodd" clip-rule="evenodd" d="M20.295 17.6933L28.1738 25.3333L26.125 27.32L18.2463 19.68C16.775 20.7067 15.0013 21.3333 13.0625 21.3333C8.12625 21.3333 4.125 17.4533 4.125 12.6667C4.125 7.88 8.12625 4 13.0625 4C17.9988 4 22 7.88 22 12.6667C22 14.5467 21.3538 16.2667 20.295 17.6933ZM13.0625 6.66667C9.63875 6.66667 6.875 9.34667 6.875 12.6667C6.875 15.9867 9.63875 18.6667 13.0625 18.6667C16.4863 18.6667 19.25 15.9867 19.25 12.6667C19.25 9.34667 16.4863 6.66667 13.0625 6.66667Z" fill="#000"/>
</svg>
